<svg viewBox="0 0 200 104" xmlns="http://www.w3.org/2000/svg">
  <rect width="200" height="104" rx="22" fill="#FFF7EE"/>
  <g stroke="#361C77" stroke-linecap="round">
    <line x1="115.8" y1="83.8" x2="175.3" y2="75.4" stroke-width="4.2"/><line x1="115.4" y1="81.5" x2="155.7" y2="69.8" stroke-width="3.2"/><line x1="114.6" y1="79.4" x2="169.2" y2="54.6" stroke-width="4.2"/><line x1="113.5" y1="77.4" x2="148.9" y2="54.8" stroke-width="3.2"/><line x1="112.1" y1="75.5" x2="157.5" y2="36.3" stroke-width="4.2"/><line x1="110.5" y1="73.9" x2="138.1" y2="42.2" stroke-width="3.2"/><line x1="108.7" y1="72.6" x2="141.2" y2="22.1" stroke-width="4.2"/><line x1="106.7" y1="71.5" x2="124.1" y2="33.3" stroke-width="3.2"/><line x1="104.5" y1="70.7" x2="121.5" y2="13.1" stroke-width="4.2"/><line x1="102.3" y1="70.2" x2="108.3" y2="28.6" stroke-width="3.2"/><line x1="100.0" y1="70.0" x2="100.0" y2="10.0" stroke-width="4.2"/><line x1="97.7" y1="70.2" x2="91.7" y2="28.6" stroke-width="3.2"/><line x1="95.5" y1="70.7" x2="78.5" y2="13.1" stroke-width="4.2"/><line x1="93.3" y1="71.5" x2="75.9" y2="33.3" stroke-width="3.2"/><line x1="91.3" y1="72.6" x2="58.8" y2="22.1" stroke-width="4.2"/><line x1="89.5" y1="73.9" x2="61.9" y2="42.2" stroke-width="3.2"/><line x1="87.9" y1="75.5" x2="42.5" y2="36.3" stroke-width="4.2"/><line x1="86.5" y1="77.4" x2="51.1" y2="54.8" stroke-width="3.2"/><line x1="85.4" y1="79.4" x2="30.8" y2="54.6" stroke-width="4.2"/><line x1="84.6" y1="81.5" x2="44.3" y2="69.8" stroke-width="3.2"/><line x1="84.2" y1="83.8" x2="24.7" y2="75.4" stroke-width="4.2"/>
    <line x1="14" y1="86" x2="66" y2="86" stroke-width="4.6"/><line x1="134" y1="86" x2="186" y2="86" stroke-width="4.6"/>
  </g>
</svg>